# xmcd
#
# Track frame offsets: 
#        150
#        14000
#        28483
#        38726
#        50503
#        64776
#        77682
#        88454
#        97845
#        109808
#        122923
#        137214
#        146809
#        161282
#        171480
#        185318
#
# Disc length: 2629 seconds
#
# Revision: 0
# Processed by: cddbd v1.5.1PL2 Copyright (c) Steve Scherf et al.
# Submitted via: ExactAudioCopy v0.95b1
#
DISCID=e60a4310
DTITLE=Charley Pride - 16 Biggest Hits
DYEAR=1900
DGENRE=Country
TTITLE0=All I Have To Offer You Is Me
TTITLE1=(I'm So) Afraid Of Losing You Again
TTITLE2=Is Anybody Goin To San Antoine
TTITLE3=Wonder Could I Live There Anymore
TTITLE4=I Can't Believe That You've Stopped Loving Me
TTITLE5=I'd Rather Love You
TTITLE6=I'm Just Me
TTITLE7=Kiss An Angel Good Morning
TTITLE8=I's Gonna Take A Little Bit Longer
TTITLE9=She's Too Good To Be True
TTITLE10=A Shoulder To Cry On
TTITLE11=Don't Fight The Feelings Of Love
TTITLE12=Amazing Love
TTITLE13=Then Who Am I
TTITLE14=Hope You're Feelin Me (Like I'm Feeling You)
TTITLE15=My Eyes Can Only See As Far As You
EXTD=
EXTT0=
EXTT1=
EXTT2=
EXTT3=
EXTT4=
EXTT5=
EXTT6=
EXTT7=
EXTT8=
EXTT9=
EXTT10=
EXTT11=
EXTT12=
EXTT13=
EXTT14=
EXTT15=
PLAYORDER=
